<svg xmlns="http://www.w3.org/2000/svg" version="1.1" xmlns:xlink="http://www.w3.org/1999/xlink" xmlns:svgjs="http://svgjs.dev/svgjs" width="1440" height="560" preserveAspectRatio="none" viewBox="0 0 1440 560"><g mask="url(&quot;#SvgjsMask1001&quot;)" fill="none"><rect width="1440" height="560" x="0" y="0" fill="rgba(22, 22, 22, 1)"></rect><path d="M381.08 641.76C489.18 636.34 571.82 447.09 767.59 446.69 963.36 446.29 960.85 516.69 1154.11 516.69 1347.36 516.69 1442.42 446.97 1540.62 446.69" stroke="rgba(51,121,194,0.58)" stroke-width="2"></path><path d="M620.92 583.66C741.92 550.76 702.36 215.74 961.16 215.13 1219.95 214.52 1464.61 409.19 1641.63 411.13" stroke="rgba(51,121,194,0.58)" stroke-width="2"></path><path d="M757.08 637.34C905.76 608.62 977.14 231.38 1205.86 230.54 1434.58 229.7 1528.78 453.6 1654.64 460.14" stroke="rgba(51,121,194,0.58)" stroke-width="2"></path><path d="M366.1 563.79C553.56 530.46 646.74 65.21 940.61 63.8 1234.47 62.39 1358.37 310.34 1515.11 315.8" stroke="rgba(51,121,194,0.58)" stroke-width="2"></path><path d="M898.19 661.92C1020.62 635.32 1036.03 342.94 1259.38 314.5 1482.73 286.06 1518.65 129.81 1620.57 124.1" stroke="rgba(51,121,194,0.58)" stroke-width="2"></path></g><defs><mask id="SvgjsMask1001"><rect width="1440" height="560" fill="#ffffff"></rect></mask></defs></svg>