<?xml version="1.0" standalone="no"?>
<!DOCTYPE svg PUBLIC "-//W3C//DTD SVG 20010904//EN"
 "http://www.w3.org/TR/2001/REC-SVG-20010904/DTD/svg10.dtd">
<svg version="1.0" xmlns="http://www.w3.org/2000/svg"
 width="256.000000pt" height="256.000000pt" viewBox="0 0 256.000000 256.000000"
 preserveAspectRatio="xMidYMid meet">

<g transform="translate(0.000000,256.000000) scale(0.100000,-0.100000)"
fill="#000000" stroke="none">
<path d="M1000 2273 c0 -16 9 -62 20 -103 34 -130 59 -118 -227 -112 -216 4
-246 3 -240 -10 3 -8 38 -60 77 -116 40 -55 72 -104 72 -108 -1 -4 -62 -26
-138 -50 -75 -23 -141 -47 -146 -52 -7 -7 1 -16 23 -28 55 -28 178 -108 179
-117 0 -4 -29 -50 -65 -103 -36 -52 -63 -99 -60 -105 4 -5 33 -9 66 -9 32 0
59 -2 59 -5 0 -3 -7 -22 -16 -43 -38 -88 -37 -85 -7 -79 16 4 39 10 52 13 24
7 24 7 17 -54 -8 -69 1 -78 32 -35 14 18 24 25 30 18 20 -21 35 -92 36 -165 1
-61 6 -82 25 -114 31 -49 91 -77 163 -76 31 0 82 -9 123 -24 l70 -24 -35 -9
c-31 -8 -35 -13 -38 -45 -2 -25 4 -46 22 -73 25 -36 31 -54 27 -83 -1 -8 5
-22 14 -32 15 -16 14 -25 -11 -109 -15 -50 -26 -93 -23 -95 2 -2 14 -7 26 -10
17 -5 28 0 49 23 17 19 31 28 38 22 24 -18 96 -22 127 -6 29 15 29 15 18 -3
-16 -25 -5 -52 20 -52 11 0 36 14 54 30 35 30 57 38 57 21 0 -5 9 -13 21 -16
15 -5 29 0 48 19 l27 26 17 -30 c14 -24 25 -30 51 -30 17 0 37 5 44 12 9 9 15
9 24 0 17 -17 54 -15 72 3 8 8 19 15 25 15 14 0 16 -8 -19 106 -32 105 -36
139 -20 149 6 3 10 18 10 33 0 14 12 43 26 63 19 27 25 47 22 75 -3 35 -6 39
-32 42 -28 3 -27 5 33 43 57 36 65 46 97 116 46 100 52 147 26 205 -14 32 -22
80 -27 160 l-7 115 63 56 c35 30 78 67 94 82 l30 26 -61 -5 c-33 -3 -67 -8
-75 -11 -12 -5 -14 16 -14 127 0 148 -10 228 -29 228 -6 0 -30 -18 -51 -40
-22 -22 -42 -39 -46 -38 -4 2 -41 71 -83 153 -81 159 -119 216 -135 200 -5 -6
-21 -46 -35 -90 -36 -111 -35 -109 -81 -78 -65 44 -471 233 -501 233 -2 0 -4
-12 -4 -27z m111 -32 c147 -60 299 -134 373 -181 79 -50 73 -53 112 65 15 44
29 84 31 88 9 15 42 -40 118 -194 42 -85 80 -155 86 -157 5 -2 28 12 51 32 23
20 45 36 48 36 19 0 27 -233 10 -305 -5 -22 -7 -41 -5 -43 2 -2 32 3 66 12 35
8 64 14 66 12 2 -2 -18 -20 -44 -41 -27 -21 -64 -54 -84 -73 -36 -33 -37 -33
-67 -18 -64 33 -225 67 -347 73 -144 7 -216 -9 -415 -89 -228 -92 -380 -176
-380 -210 0 -11 -10 -32 -21 -46 l-22 -27 5 53 c3 28 4 52 3 52 -1 0 -21 -7
-44 -15 -48 -17 -50 -12 -15 56 14 28 22 54 19 57 -4 4 -35 5 -71 3 -35 -1
-64 0 -64 4 0 3 29 47 65 96 36 50 65 95 65 99 0 7 -56 44 -184 120 l-29 18
147 46 c80 26 146 49 146 52 0 3 -36 56 -80 117 -44 61 -78 112 -76 114 2 2
108 -1 236 -7 165 -9 235 -9 243 -1 9 9 -8 106 -39 219 -4 12 -4 22 -2 22 3 0
47 -17 99 -39z m833 -1063 c20 -28 21 -104 2 -140 -8 -14 -19 -42 -26 -62 -14
-43 -74 -95 -150 -130 -44 -21 -71 -26 -134 -26 -66 0 -77 2 -72 15 3 8 10 43
15 78 20 125 20 137 7 137 -25 0 -131 -22 -137 -28 -9 -9 16 -102 41 -154 11
-23 19 -42 17 -44 -1 -1 -76 -10 -167 -19 l-165 -18 -91 32 c-72 24 -101 30
-136 25 -84 -12 -156 45 -165 129 -3 23 0 54 6 70 14 37 69 63 107 51 16 -5
144 -7 289 -4 240 6 263 8 295 27 33 19 38 20 95 7 l60 -15 135 45 c74 24 140
45 147 45 6 1 19 -9 27 -21z m-379 -188 c20 -60 -12 -176 -43 -156 -14 9 -62
132 -62 160 0 26 20 35 69 32 18 -1 27 -10 36 -36z"/>
</g>
</svg>
